<svg width="25" height="24" viewBox="0 0 25 24" fill="none" xmlns="http://www.w3.org/2000/svg">
<path d="M22.985 9.30214C22.5811 8.88 22.1632 8.445 22.0057 8.0625C21.86 7.71214 21.8514 7.13143 21.8429 6.56893C21.8268 5.52321 21.8096 4.33821 20.9857 3.51429C20.1618 2.69036 18.9768 2.67321 17.9311 2.65714C17.3686 2.64857 16.7879 2.64 16.4375 2.49429C16.0561 2.33679 15.62 1.91893 15.1979 1.515C14.4586 0.804643 13.6186 0 12.5 0C11.3814 0 10.5425 0.804643 9.80214 1.515C9.38 1.91893 8.945 2.33679 8.5625 2.49429C8.21429 2.64 7.63143 2.64857 7.06893 2.65714C6.02321 2.67321 4.83821 2.69036 4.01429 3.51429C3.19036 4.33821 3.17857 5.52321 3.15714 6.56893C3.14857 7.13143 3.14 7.71214 2.99429 8.0625C2.83679 8.44393 2.41893 8.88 2.015 9.30214C1.30464 10.0414 0.5 10.8814 0.5 12C0.5 13.1186 1.30464 13.9575 2.015 14.6979C2.41893 15.12 2.83679 15.555 2.99429 15.9375C3.14 16.2879 3.14857 16.8686 3.15714 17.4311C3.17321 18.4768 3.19036 19.6618 4.01429 20.4857C4.83821 21.3096 6.02321 21.3268 7.06893 21.3429C7.63143 21.3514 8.21214 21.36 8.5625 21.5057C8.94393 21.6632 9.38 22.0811 9.80214 22.485C10.5414 23.1954 11.3814 24 12.5 24C13.6186 24 14.4575 23.1954 15.1979 22.485C15.62 22.0811 16.055 21.6632 16.4375 21.5057C16.7879 21.36 17.3686 21.3514 17.9311 21.3429C18.9768 21.3268 20.1618 21.3096 20.9857 20.4857C21.8096 19.6618 21.8268 18.4768 21.8429 17.4311C21.8514 16.8686 21.86 16.2879 22.0057 15.9375C22.1632 15.5561 22.5811 15.12 22.985 14.6979C23.6954 13.9586 24.5 13.1186 24.5 12C24.5 10.8814 23.6954 10.0425 22.985 9.30214ZM17.3921 10.035L11.3921 16.035C11.3125 16.1147 11.218 16.1779 11.1139 16.2211C11.0099 16.2642 10.8984 16.2864 10.7857 16.2864C10.6731 16.2864 10.5615 16.2642 10.4575 16.2211C10.3534 16.1779 10.2589 16.1147 10.1793 16.035L7.60786 13.4636C7.52822 13.3839 7.46505 13.2894 7.42195 13.1853C7.37885 13.0813 7.35667 12.9698 7.35667 12.8571C7.35667 12.7445 7.37885 12.633 7.42195 12.5289C7.46505 12.4249 7.52822 12.3304 7.60786 12.2507C7.76869 12.0899 7.98683 11.9995 8.21429 11.9995C8.32691 11.9995 8.43843 12.0217 8.54248 12.0648C8.64653 12.1079 8.74108 12.1711 8.82071 12.2507L10.7857 14.2168L16.1793 8.82214C16.2589 8.74251 16.3535 8.67933 16.4575 8.63623C16.5616 8.59313 16.6731 8.57095 16.7857 8.57095C16.8983 8.57095 17.0099 8.59313 17.1139 8.63623C17.218 8.67933 17.3125 8.74251 17.3921 8.82214C17.4718 8.90178 17.535 8.99632 17.5781 9.10037C17.6212 9.20443 17.6433 9.31595 17.6433 9.42857C17.6433 9.5412 17.6212 9.65272 17.5781 9.75677C17.535 9.86082 17.4718 9.95536 17.3921 10.035Z" fill="white"/>
</svg>
