<svg width="21" height="16" viewBox="0 0 21 16" fill="none" xmlns="http://www.w3.org/2000/svg">
<path d="M20.7124 2.96554L18.1351 0.865541C18.0485 0.79501 17.931 0.755371 17.8084 0.755371C17.6858 0.755371 17.5682 0.79501 17.4816 0.865541L6.59667 9.71554C6.51008 9.78607 6.39251 9.82571 6.2699 9.82571C6.14729 9.82571 6.02972 9.78607 5.94313 9.71554L3.3659 7.61554C3.27931 7.54501 3.16174 7.50537 3.03913 7.50537C2.91652 7.50537 2.79895 7.54501 2.71236 7.61554L0.135132 9.71554C-0.0450441 9.86198 -0.0450441 10.0994 0.135132 10.2458L5.94313 14.9655C6.02972 15.0361 6.14729 15.0757 6.2699 15.0757C6.39251 15.0757 6.51008 15.0361 6.59667 14.9655L20.7124 3.49054C20.8883 3.34473 20.8883 3.11136 20.7124 2.96554Z" fill="black"/>
</svg>
