<svg width="125" height="48" viewBox="0 0 125 48" fill="none" xmlns="http://www.w3.org/2000/svg">
<g filter="url(#filter0_d_62_88)">
<path d="M32.44 10.16C34.1467 10.16 35.6533 10.5067 36.96 11.2C38.2933 11.8667 39.3333 12.9067 40.08 14.32C40.8533 15.7067 41.24 17.4933 41.24 19.68V32H35V20.64C35 18.9067 34.64 17.6267 33.92 16.8C33.2 15.9733 32.1867 15.56 30.88 15.56C29.9733 15.56 29.16 15.7733 28.44 16.2C27.72 16.6 27.16 17.2133 26.76 18.04C26.36 18.8667 26.16 19.92 26.16 21.2V32H19.92V20.64C19.92 18.9067 19.56 17.6267 18.84 16.8C18.1467 15.9733 17.1467 15.56 15.84 15.56C14.9333 15.56 14.12 15.7733 13.4 16.2C12.68 16.6 12.12 17.2133 11.72 18.04C11.32 18.8667 11.12 19.92 11.12 21.2V32H4.88V10.48H10.84V16.36L9.72 14.64C10.4667 13.1733 11.52 12.0667 12.88 11.32C14.2667 10.5467 15.84 10.16 17.6 10.16C19.5733 10.16 21.2933 10.6667 22.76 11.68C24.2533 12.6667 25.24 14.1867 25.72 16.24L23.52 15.64C24.24 13.96 25.3867 12.6267 26.96 11.64C28.56 10.6533 30.3867 10.16 32.44 10.16ZM59.5531 32.32C57.7398 32.32 56.1531 31.92 54.7931 31.12C53.4331 30.32 52.3665 29.1067 51.5931 27.48C50.8465 25.8267 50.4731 23.7467 50.4731 21.24C50.4731 18.7067 50.8331 16.6267 51.5531 15C52.2731 13.3733 53.3131 12.16 54.6731 11.36C56.0331 10.56 57.6598 10.16 59.5531 10.16C61.5798 10.16 63.3931 10.6267 64.9931 11.56C66.6198 12.4667 67.8998 13.7467 68.8331 15.4C69.7931 17.0533 70.2731 19 70.2731 21.24C70.2731 23.5067 69.7931 25.4667 68.8331 27.12C67.8998 28.7733 66.6198 30.0533 64.9931 30.96C63.3931 31.8667 61.5798 32.32 59.5531 32.32ZM46.8331 39.76V10.48H52.7931V14.88L52.6731 21.28L53.0731 27.64V39.76H46.8331ZM58.4731 27.2C59.5131 27.2 60.4331 26.96 61.2331 26.48C62.0598 26 62.7131 25.32 63.1931 24.44C63.6998 23.5333 63.9531 22.4667 63.9531 21.24C63.9531 19.9867 63.6998 18.92 63.1931 18.04C62.7131 17.16 62.0598 16.48 61.2331 16C60.4331 15.52 59.5131 15.28 58.4731 15.28C57.4331 15.28 56.4998 15.52 55.6731 16C54.8465 16.48 54.1931 17.16 53.7131 18.04C53.2331 18.92 52.9931 19.9867 52.9931 21.24C52.9931 22.4667 53.2331 23.5333 53.7131 24.44C54.1931 25.32 54.8465 26 55.6731 26.48C56.4998 26.96 57.4331 27.2 58.4731 27.2ZM74.4503 32V10.48H80.6903V32H74.4503ZM77.5703 7.48C76.4236 7.48 75.4903 7.14667 74.7703 6.48C74.0503 5.81333 73.6903 4.98666 73.6903 4C73.6903 3.01333 74.0503 2.18667 74.7703 1.52C75.4903 0.853331 76.4236 0.519998 77.5703 0.519998C78.717 0.519998 79.6503 0.839998 80.3703 1.48C81.0903 2.09333 81.4503 2.89333 81.4503 3.88C81.4503 4.92 81.0903 5.78667 80.3703 6.48C79.677 7.14667 78.7436 7.48 77.5703 7.48ZM86.4816 32V2.32H92.7216V32H86.4816ZM108.753 32.32C106.459 32.32 104.419 31.84 102.633 30.88C100.873 29.92 99.4728 28.6133 98.4328 26.96C97.4195 25.28 96.9128 23.3733 96.9128 21.24C96.9128 19.08 97.4195 17.1733 98.4328 15.52C99.4728 13.84 100.873 12.5333 102.633 11.6C104.419 10.64 106.459 10.16 108.753 10.16C111.019 10.16 113.046 10.64 114.833 11.6C116.619 12.5333 118.019 13.8267 119.033 15.48C120.046 17.1333 120.553 19.0533 120.553 21.24C120.553 23.3733 120.046 25.28 119.033 26.96C118.019 28.6133 116.619 29.92 114.833 30.88C113.046 31.84 111.019 32.32 108.753 32.32ZM108.753 27.2C109.793 27.2 110.726 26.96 111.553 26.48C112.379 26 113.033 25.32 113.513 24.44C113.993 23.5333 114.233 22.4667 114.233 21.24C114.233 19.9867 113.993 18.92 113.513 18.04C113.033 17.16 112.379 16.48 111.553 16C110.726 15.52 109.793 15.28 108.753 15.28C107.713 15.28 106.779 15.52 105.953 16C105.126 16.48 104.459 17.16 103.953 18.04C103.473 18.92 103.233 19.9867 103.233 21.24C103.233 22.4667 103.473 23.5333 103.953 24.44C104.459 25.32 105.126 26 105.953 26.48C106.779 26.96 107.713 27.2 108.753 27.2Z" fill="#F74D4D"/>
</g>
<defs>
<filter id="filter0_d_62_88" x="0.880005" y="0.52002" width="123.673" height="47.24" filterUnits="userSpaceOnUse" color-interpolation-filters="sRGB">
<feFlood flood-opacity="0" result="BackgroundImageFix"/>
<feColorMatrix in="SourceAlpha" type="matrix" values="0 0 0 0 0 0 0 0 0 0 0 0 0 0 0 0 0 0 127 0" result="hardAlpha"/>
<feOffset dy="4"/>
<feGaussianBlur stdDeviation="2"/>
<feComposite in2="hardAlpha" operator="out"/>
<feColorMatrix type="matrix" values="0 0 0 0 0 0 0 0 0 0 0 0 0 0 0 0 0 0 0.25 0"/>
<feBlend mode="normal" in2="BackgroundImageFix" result="effect1_dropShadow_62_88"/>
<feBlend mode="normal" in="SourceGraphic" in2="effect1_dropShadow_62_88" result="shape"/>
</filter>
</defs>
</svg>
