<svg width="84" height="29" viewBox="0 0 84 29" fill="none" xmlns="http://www.w3.org/2000/svg">
<path d="M20.0976 7.10321C21.3281 7.10321 22.4144 7.35316 23.3566 7.85305C24.3179 8.33372 25.0677 9.08356 25.6061 10.1026C26.1636 11.1024 26.4424 12.3905 26.4424 13.9671V22.8499H21.9434V14.6593C21.9434 13.4096 21.6838 12.4867 21.1647 11.8907C20.6456 11.2946 19.915 10.9966 18.9729 10.9966C18.3192 10.9966 17.7328 11.1504 17.2136 11.4581C16.6945 11.7465 16.2908 12.1887 16.0024 12.7847C15.714 13.3807 15.5698 14.1402 15.5698 15.0631V22.8499H11.0707V14.6593C11.0707 13.4096 10.8112 12.4867 10.292 11.8907C9.79214 11.2946 9.07114 10.9966 8.12903 10.9966C7.47532 10.9966 6.88891 11.1504 6.36979 11.4581C5.85067 11.7465 5.44691 12.1887 5.15851 12.7847C4.87011 13.3807 4.72591 14.1402 4.72591 15.0631V22.8499H0.226871V7.33393H4.52403V11.5734L3.71651 10.3333C4.25486 9.27583 5.01431 8.47792 5.99487 7.93957C6.99466 7.382 8.12903 7.10321 9.39799 7.10321C10.8208 7.10321 12.0609 7.46852 13.1184 8.19913C14.195 8.91052 14.9064 10.0064 15.2525 11.4869L13.6663 11.0543C14.1854 9.84301 15.0122 8.88168 16.1466 8.17029C17.3002 7.45891 18.6172 7.10321 20.0976 7.10321ZM39.5081 23.0806C38.2007 23.0806 37.0567 22.7922 36.0761 22.2154C35.0956 21.6386 34.3265 20.7638 33.7689 19.5909C33.2306 18.3989 32.9614 16.8992 32.9614 15.0919C32.9614 13.2654 33.221 11.7657 33.7401 10.5929C34.2592 9.42003 35.0091 8.54521 35.9896 7.96841C36.9702 7.39161 38.143 7.10321 39.5081 7.10321C40.9693 7.10321 42.2767 7.43968 43.4303 8.11261C44.6032 8.76632 45.5261 9.6892 46.199 10.8813C46.8911 12.0733 47.2372 13.4769 47.2372 15.0919C47.2372 16.7262 46.8911 18.1393 46.199 19.3314C45.5261 20.5234 44.6032 21.4463 43.4303 22.1C42.2767 22.7537 40.9693 23.0806 39.5081 23.0806ZM30.337 28.4448V7.33393H34.6341V10.5063L34.5476 15.1207L34.836 19.7063V28.4448H30.337ZM38.7294 19.3891C39.4793 19.3891 40.1426 19.216 40.7194 18.8699C41.3154 18.5239 41.7865 18.0336 42.1325 17.3991C42.4979 16.7454 42.6805 15.9763 42.6805 15.0919C42.6805 14.1882 42.4979 13.4192 42.1325 12.7847C41.7865 12.1502 41.3154 11.6599 40.7194 11.3139C40.1426 10.9678 39.4793 10.7947 38.7294 10.7947C37.9796 10.7947 37.3067 10.9678 36.7106 11.3139C36.1146 11.6599 35.6435 12.1502 35.2975 12.7847C34.9514 13.4192 34.7783 14.1882 34.7783 15.0919C34.7783 15.9763 34.9514 16.7454 35.2975 17.3991C35.6435 18.0336 36.1146 18.5239 36.7106 18.8699C37.3067 19.216 37.9796 19.3891 38.7294 19.3891ZM50.1109 22.8499V7.33393H54.6099V22.8499H50.1109ZM52.3604 5.17093C51.5337 5.17093 50.8607 4.9306 50.3416 4.44993C49.8225 3.96927 49.5629 3.37324 49.5629 2.66185C49.5629 1.95047 49.8225 1.35444 50.3416 0.873773C50.8607 0.393105 51.5337 0.152772 52.3604 0.152772C53.1872 0.152772 53.8601 0.383492 54.3792 0.844933C54.8983 1.28715 55.1579 1.86395 55.1579 2.57533C55.1579 3.32517 54.8983 3.95004 54.3792 4.44993C53.8793 4.9306 53.2064 5.17093 52.3604 5.17093ZM58.6473 22.8499V1.45057H63.1464V22.8499H58.6473ZM74.5668 23.0806C72.9133 23.0806 71.4425 22.7345 70.1543 22.0423C68.8853 21.3502 67.8759 20.4081 67.1261 19.216C66.3955 18.0047 66.0302 16.63 66.0302 15.0919C66.0302 13.5345 66.3955 12.1598 67.1261 10.9678C67.8759 9.75649 68.8853 8.81439 70.1543 8.14145C71.4425 7.44929 72.9133 7.10321 74.5668 7.10321C76.2011 7.10321 77.6623 7.44929 78.9505 8.14145C80.2387 8.81439 81.2481 9.74688 81.9787 10.9389C82.7093 12.131 83.0746 13.5153 83.0746 15.0919C83.0746 16.63 82.7093 18.0047 81.9787 19.216C81.2481 20.4081 80.2387 21.3502 78.9505 22.0423C77.6623 22.7345 76.2011 23.0806 74.5668 23.0806ZM74.5668 19.3891C75.3167 19.3891 75.9896 19.216 76.5856 18.8699C77.1816 18.5239 77.6527 18.0336 77.9988 17.3991C78.3449 16.7454 78.5179 15.9763 78.5179 15.0919C78.5179 14.1882 78.3449 13.4192 77.9988 12.7847C77.6527 12.1502 77.1816 11.6599 76.5856 11.3139C75.9896 10.9678 75.3167 10.7947 74.5668 10.7947C73.817 10.7947 73.144 10.9678 72.548 11.3139C71.952 11.6599 71.4713 12.1502 71.106 12.7847C70.7599 13.4192 70.5869 14.1882 70.5869 15.0919C70.5869 15.9763 70.7599 16.7454 71.106 17.3991C71.4713 18.0336 71.952 18.5239 72.548 18.8699C73.144 19.216 73.817 19.3891 74.5668 19.3891Z" fill="white"/>
</svg>
