<svg width="381" height="818" viewBox="0 0 381 818" fill="none" xmlns="http://www.w3.org/2000/svg">
<g clip-path="url(#clip0_62_121)">
<rect x="3" y="3" width="375" height="812" rx="24" fill="#F7F7FC"/>
<g clip-path="url(#clip1_62_121)">
<path d="M3 649H378V815.464H3V649Z" fill="white"/>
<rect width="375" height="139" transform="translate(3 649)" fill="white"/>
<path d="M28 719.5V725.5H26V719.5H20V717.5H26V711.5H28V717.5H34V719.5H28Z" fill="#ADB5BD"/>
<rect x="51" y="659" width="279" height="119" rx="8" fill="#F7F7FC"/>
<path d="M64.418 672.76C62.108 672.76 60.652 674.468 60.652 677.03C60.652 679.634 62.192 681.216 64.446 681.216C66.126 681.216 67.764 680.404 67.764 677.996V677.478H64.138V676.582H68.716V682.014H67.918L67.82 680.418C67.288 681.412 66.028 682.168 64.404 682.168C61.562 682.168 59.602 680.124 59.602 677.03C59.602 673.964 61.562 671.808 64.432 671.808C66.546 671.808 68.184 673.012 68.576 674.832H67.484C67.064 673.46 65.888 672.76 64.418 672.76ZM70.032 678.612C70.032 676.54 71.488 675.042 73.476 675.042C75.464 675.042 76.92 676.54 76.92 678.612C76.92 680.67 75.464 682.168 73.476 682.168C71.488 682.168 70.032 680.67 70.032 678.612ZM71.012 678.598C71.012 680.194 72.02 681.3 73.476 681.3C74.918 681.3 75.94 680.194 75.94 678.598C75.94 677.03 74.918 675.91 73.476 675.91C72.02 675.91 71.012 677.03 71.012 678.598ZM77.989 678.612C77.989 676.54 79.445 675.042 81.433 675.042C83.421 675.042 84.877 676.54 84.877 678.612C84.877 680.67 83.421 682.168 81.433 682.168C79.445 682.168 77.989 680.67 77.989 678.612ZM78.969 678.598C78.969 680.194 79.977 681.3 81.433 681.3C82.875 681.3 83.897 680.194 83.897 678.598C83.897 677.03 82.875 675.91 81.433 675.91C79.977 675.91 78.969 677.03 78.969 678.598ZM89.0821 682.168C87.1081 682.168 85.9461 680.656 85.9461 678.626C85.9461 676.582 87.1081 675.042 89.1241 675.042C90.2441 675.042 91.1401 675.532 91.6161 676.512V671.794H92.5821V682H91.7421L91.6441 680.614C91.1681 681.664 90.2161 682.168 89.0821 682.168ZM89.2501 681.286C90.7341 681.286 91.6021 680.166 91.6021 678.598C91.6021 677.044 90.7341 675.91 89.2501 675.91C87.7801 675.91 86.9261 677.044 86.9261 678.598C86.9261 680.166 87.7801 681.286 89.2501 681.286ZM99.4467 682H98.4807V675.224H99.3207L99.4327 676.19C99.7687 675.476 100.525 675.042 101.477 675.042C102.541 675.042 103.339 675.602 103.661 676.484C103.969 675.602 104.795 675.042 105.887 675.042C107.357 675.042 108.323 675.994 108.323 677.562V682H107.385V677.758C107.385 676.596 106.741 675.91 105.705 675.91C104.571 675.91 103.899 676.764 103.899 677.814V682H102.947V677.744C102.947 676.596 102.289 675.924 101.267 675.924C100.133 675.924 99.4467 676.764 99.4467 677.8V682ZM109.79 678.612C109.79 676.54 111.246 675.042 113.234 675.042C115.222 675.042 116.678 676.54 116.678 678.612C116.678 680.67 115.222 682.168 113.234 682.168C111.246 682.168 109.79 680.67 109.79 678.612ZM110.77 678.598C110.77 680.194 111.778 681.3 113.234 681.3C114.676 681.3 115.698 680.194 115.698 678.598C115.698 677.03 114.676 675.91 113.234 675.91C111.778 675.91 110.77 677.03 110.77 678.598ZM121.765 675.14V676.008H121.233C119.987 676.008 119.189 676.848 119.189 678.136V682H118.223V675.224H119.133L119.203 676.274C119.469 675.546 120.183 675.07 121.135 675.07C121.345 675.07 121.527 675.084 121.765 675.14ZM124.015 682H123.049V675.224H123.889L124.029 676.4C124.477 675.532 125.373 675.042 126.353 675.042C128.215 675.042 128.985 676.148 128.985 677.856V682H128.019V678.066C128.019 676.484 127.305 675.924 126.185 675.924C124.799 675.924 124.015 676.932 124.015 678.458V682ZM131.386 673.362C130.994 673.362 130.672 673.04 130.672 672.648C130.672 672.256 130.994 671.92 131.386 671.92C131.778 671.92 132.114 672.256 132.114 672.648C132.114 673.04 131.778 673.362 131.386 673.362ZM130.91 682V675.224H131.876V682H130.91ZM134.857 682H133.891V675.224H134.731L134.871 676.4C135.319 675.532 136.215 675.042 137.195 675.042C139.057 675.042 139.827 676.148 139.827 677.856V682H138.861V678.066C138.861 676.484 138.147 675.924 137.027 675.924C135.641 675.924 134.857 676.932 134.857 678.458V682ZM141.29 678.416C141.29 676.568 142.48 675.042 144.468 675.042C145.644 675.042 146.54 675.588 146.974 676.582L147.072 675.224H147.912V681.79C147.912 683.806 146.624 685.122 144.636 685.122C142.9 685.122 141.682 684.142 141.416 682.504H142.382C142.592 683.596 143.432 684.24 144.65 684.24C146.036 684.24 146.96 683.302 146.96 681.888V680.278C146.498 681.23 145.56 681.79 144.398 681.79C142.466 681.79 141.29 680.264 141.29 678.416ZM142.256 678.402C142.256 679.788 143.11 680.922 144.538 680.922C146.008 680.922 146.876 679.858 146.876 678.402C146.876 676.96 146.036 675.896 144.552 675.896C143.096 675.896 142.256 677.03 142.256 678.402ZM151.636 681.524C151.636 682.392 150.964 683.148 150.096 683.274V682.756C150.6 682.672 150.964 682.308 150.964 681.916C150.88 681.972 150.768 682.014 150.6 682.014C150.208 682.014 149.872 681.734 149.872 681.258C149.872 680.768 150.208 680.418 150.698 680.418C151.202 680.418 151.636 680.824 151.636 681.524ZM160.737 682H157.685V671.976H160.709C163.733 671.976 165.749 673.992 165.749 676.988C165.749 679.984 163.747 682 160.737 682ZM160.667 672.9H158.693V681.076H160.695C163.145 681.076 164.713 679.48 164.713 676.988C164.713 674.482 163.145 672.9 160.667 672.9ZM166.884 678.612C166.884 676.54 168.34 675.042 170.328 675.042C172.316 675.042 173.772 676.54 173.772 678.612C173.772 680.67 172.316 682.168 170.328 682.168C168.34 682.168 166.884 680.67 166.884 678.612ZM167.864 678.598C167.864 680.194 168.872 681.3 170.328 681.3C171.77 681.3 172.792 680.194 172.792 678.598C172.792 677.03 171.77 675.91 170.328 675.91C168.872 675.91 167.864 677.03 167.864 678.598ZM174.841 678.626C174.841 676.498 176.143 675.042 178.117 675.042C179.685 675.042 180.833 675.952 181.099 677.352H180.133C179.881 676.414 179.069 675.896 178.131 675.896C176.759 675.896 175.793 676.946 175.793 678.612C175.793 680.222 176.689 681.3 178.061 681.3C179.069 681.3 179.881 680.74 180.147 679.872H181.127C180.805 681.258 179.601 682.168 178.061 682.168C176.143 682.168 174.841 680.754 174.841 678.626ZM184.144 682H183.192V676.036H181.834V675.224H183.192V673.082H184.144V675.224H185.502V676.036H184.144V682ZM186.216 678.612C186.216 676.54 187.672 675.042 189.66 675.042C191.648 675.042 193.104 676.54 193.104 678.612C193.104 680.67 191.648 682.168 189.66 682.168C187.672 682.168 186.216 680.67 186.216 678.612ZM187.196 678.598C187.196 680.194 188.204 681.3 189.66 681.3C191.102 681.3 192.124 680.194 192.124 678.598C192.124 677.03 191.102 675.91 189.66 675.91C188.204 675.91 187.196 677.03 187.196 678.598ZM198.191 675.14V676.008H197.659C196.413 676.008 195.615 676.848 195.615 678.136V682H194.649V675.224H195.559L195.629 676.274C195.895 675.546 196.609 675.07 197.561 675.07C197.771 675.07 197.953 675.084 198.191 675.14ZM199.262 682.154C198.786 682.154 198.38 681.762 198.38 681.3C198.38 680.824 198.786 680.418 199.262 680.418C199.738 680.418 200.144 680.824 200.144 681.3C200.144 681.762 199.738 682.154 199.262 682.154ZM207.201 671.976V682H206.193V671.976H207.201ZM210.24 672.662L209.974 675.448H209.344L209.064 672.662C209.008 672.172 209.358 671.948 209.666 671.948C209.96 671.948 210.296 672.172 210.24 672.662ZM213.779 682L211.007 675.224H212.043L213.793 679.592C213.975 680.082 214.157 680.544 214.283 680.992C214.409 680.53 214.591 680.082 214.787 679.592L216.565 675.224H217.559L214.745 682H213.779ZM221.239 682.168C219.251 682.168 217.921 680.74 217.921 678.612C217.921 676.498 219.237 675.042 221.169 675.042C223.003 675.042 224.249 676.344 224.249 678.262V678.738H218.859C218.929 680.39 219.797 681.342 221.253 681.342C222.359 681.342 223.073 680.866 223.325 679.97H224.249C223.885 681.398 222.835 682.168 221.239 682.168ZM221.169 675.868C219.895 675.868 219.055 676.708 218.887 678.038H223.283C223.283 676.736 222.443 675.868 221.169 675.868ZM230.516 682H229.676V671.794H230.642V676.54C231.118 675.546 232.042 675.042 233.19 675.042C235.164 675.042 236.312 676.582 236.312 678.626C236.312 680.656 235.136 682.168 233.162 682.168C232.028 682.168 231.09 681.664 230.614 680.614L230.516 682ZM230.656 678.598C230.656 680.166 231.524 681.286 233.008 681.286C234.478 681.286 235.332 680.166 235.332 678.598C235.332 677.044 234.478 675.91 233.008 675.91C231.524 675.91 230.656 677.044 230.656 678.598ZM240.694 682.168C238.706 682.168 237.376 680.74 237.376 678.612C237.376 676.498 238.692 675.042 240.624 675.042C242.458 675.042 243.704 676.344 243.704 678.262V678.738H238.314C238.384 680.39 239.252 681.342 240.708 681.342C241.814 681.342 242.528 680.866 242.78 679.97H243.704C243.34 681.398 242.29 682.168 240.694 682.168ZM240.624 675.868C239.35 675.868 238.51 676.708 238.342 678.038H242.738C242.738 676.736 241.898 675.868 240.624 675.868ZM248.09 682.168C246.102 682.168 244.772 680.74 244.772 678.612C244.772 676.498 246.088 675.042 248.02 675.042C249.854 675.042 251.1 676.344 251.1 678.262V678.738H245.71C245.78 680.39 246.648 681.342 248.104 681.342C249.21 681.342 249.924 680.866 250.176 679.97H251.1C250.736 681.398 249.686 682.168 248.09 682.168ZM248.02 675.868C246.746 675.868 245.906 676.708 245.738 678.038H250.134C250.134 676.736 249.294 675.868 248.02 675.868ZM253.611 682H252.645V675.224H253.485L253.625 676.4C254.073 675.532 254.969 675.042 255.949 675.042C257.811 675.042 258.581 676.148 258.581 677.856V682H257.615V678.066C257.615 676.484 256.901 675.924 255.781 675.924C254.395 675.924 253.611 676.932 253.611 678.458V682ZM62.85 706.168C60.862 706.168 59.532 704.74 59.532 702.612C59.532 700.498 60.848 699.042 62.78 699.042C64.614 699.042 65.86 700.344 65.86 702.262V702.738H60.47C60.54 704.39 61.408 705.342 62.864 705.342C63.97 705.342 64.684 704.866 64.936 703.97H65.86C65.496 705.398 64.446 706.168 62.85 706.168ZM62.78 699.868C61.506 699.868 60.666 700.708 60.498 702.038H64.894C64.894 700.736 64.054 699.868 62.78 699.868ZM67.4381 706H66.3041L68.7261 702.612L66.3181 699.224H67.4521L69.3701 701.94L71.2741 699.224H72.3941L69.9861 702.626L72.3801 706H71.2321L69.3281 703.284L67.4381 706ZM73.5432 708.954V699.224H74.3832L74.4812 700.596C74.9572 699.546 75.9092 699.042 77.0432 699.042C79.0032 699.042 80.1792 700.54 80.1792 702.584C80.1792 704.628 79.0452 706.168 77.0432 706.168C75.8952 706.168 74.9852 705.678 74.5092 704.698V708.954H73.5432ZM74.5232 702.612C74.5232 704.166 75.3912 705.3 76.8752 705.3C78.3452 705.3 79.1992 704.166 79.1992 702.612C79.1992 701.044 78.3452 699.924 76.8752 699.924C75.3912 699.924 74.5232 701.044 74.5232 702.612ZM84.5609 706.168C82.5729 706.168 81.2429 704.74 81.2429 702.612C81.2429 700.498 82.5589 699.042 84.4909 699.042C86.3249 699.042 87.5709 700.344 87.5709 702.262V702.738H82.1809C82.2509 704.39 83.1189 705.342 84.5749 705.342C85.6809 705.342 86.3949 704.866 86.6469 703.97H87.5709C87.2069 705.398 86.1569 706.168 84.5609 706.168ZM84.4909 699.868C83.2169 699.868 82.3769 700.708 82.2089 702.038H86.6049C86.6049 700.736 85.7649 699.868 84.4909 699.868ZM92.6574 699.14V700.008H92.1254C90.8794 700.008 90.0814 700.848 90.0814 702.136V706H89.1154V699.224H90.0254L90.0954 700.274C90.3614 699.546 91.0754 699.07 92.0274 699.07C92.2374 699.07 92.4194 699.084 92.6574 699.14ZM94.4176 697.362C94.0256 697.362 93.7036 697.04 93.7036 696.648C93.7036 696.256 94.0256 695.92 94.4176 695.92C94.8096 695.92 95.1456 696.256 95.1456 696.648C95.1456 697.04 94.8096 697.362 94.4176 697.362ZM93.9416 706V699.224H94.9076V706H93.9416ZM99.7641 706.168C97.7761 706.168 96.4461 704.74 96.4461 702.612C96.4461 700.498 97.7621 699.042 99.6941 699.042C101.528 699.042 102.774 700.344 102.774 702.262V702.738H97.3841C97.4541 704.39 98.3221 705.342 99.7781 705.342C100.884 705.342 101.598 704.866 101.85 703.97H102.774C102.41 705.398 101.36 706.168 99.7641 706.168ZM99.6941 699.868C98.4201 699.868 97.5801 700.708 97.4121 702.038H101.808C101.808 700.736 100.968 699.868 99.6941 699.868ZM105.285 706H104.319V699.224H105.159L105.299 700.4C105.747 699.532 106.643 699.042 107.623 699.042C109.485 699.042 110.255 700.148 110.255 701.856V706H109.289V702.066C109.289 700.484 108.575 699.924 107.455 699.924C106.069 699.924 105.285 700.932 105.285 702.458V706ZM111.704 702.626C111.704 700.498 113.006 699.042 114.98 699.042C116.548 699.042 117.696 699.952 117.962 701.352H116.996C116.744 700.414 115.932 699.896 114.994 699.896C113.622 699.896 112.656 700.946 112.656 702.612C112.656 704.222 113.552 705.3 114.924 705.3C115.932 705.3 116.744 704.74 117.01 703.872H117.99C117.668 705.258 116.464 706.168 114.924 706.168C113.006 706.168 111.704 704.754 111.704 702.626ZM119.929 697.362C119.537 697.362 119.215 697.04 119.215 696.648C119.215 696.256 119.537 695.92 119.929 695.92C120.321 695.92 120.657 696.256 120.657 696.648C120.657 697.04 120.321 697.362 119.929 697.362ZM119.453 706V699.224H120.419V706H119.453ZM123.4 706H122.434V699.224H123.274L123.414 700.4C123.862 699.532 124.758 699.042 125.738 699.042C127.6 699.042 128.37 700.148 128.37 701.856V706H127.404V702.066C127.404 700.484 126.69 699.924 125.57 699.924C124.184 699.924 123.4 700.932 123.4 702.458V706ZM129.833 702.416C129.833 700.568 131.023 699.042 133.011 699.042C134.187 699.042 135.083 699.588 135.517 700.582L135.615 699.224H136.455V705.79C136.455 707.806 135.167 709.122 133.179 709.122C131.443 709.122 130.225 708.142 129.959 706.504H130.925C131.135 707.596 131.975 708.24 133.193 708.24C134.579 708.24 135.503 707.302 135.503 705.888V704.278C135.041 705.23 134.103 705.79 132.941 705.79C131.009 705.79 129.833 704.264 129.833 702.416ZM130.799 702.402C130.799 703.788 131.653 704.922 133.081 704.922C134.551 704.922 135.419 703.858 135.419 702.402C135.419 700.96 134.579 699.896 133.095 699.896C131.639 699.896 130.799 701.03 130.799 702.402ZM141.78 704.096H142.704C142.704 704.88 143.292 705.37 144.244 705.37C145.294 705.37 145.91 704.922 145.91 704.194C145.91 703.634 145.63 703.312 144.832 703.116L143.67 702.822C142.494 702.528 141.92 701.912 141.92 700.988C141.92 699.798 142.914 699.042 144.37 699.042C145.798 699.042 146.722 699.826 146.764 701.086H145.826C145.798 700.302 145.252 699.84 144.342 699.84C143.39 699.84 142.858 700.246 142.858 700.974C142.858 701.492 143.222 701.856 143.964 702.038L145.126 702.332C146.302 702.626 146.834 703.172 146.834 704.152C146.834 705.37 145.798 706.168 144.258 706.168C142.732 706.168 141.78 705.356 141.78 704.096ZM147.948 702.612C147.948 700.54 149.404 699.042 151.392 699.042C153.38 699.042 154.836 700.54 154.836 702.612C154.836 704.67 153.38 706.168 151.392 706.168C149.404 706.168 147.948 704.67 147.948 702.612ZM148.928 702.598C148.928 704.194 149.936 705.3 151.392 705.3C152.834 705.3 153.856 704.194 153.856 702.598C153.856 701.03 152.834 699.91 151.392 699.91C149.936 699.91 148.928 701.03 148.928 702.598ZM157.347 706H156.381V699.224H157.221L157.333 700.19C157.669 699.476 158.425 699.042 159.377 699.042C160.441 699.042 161.239 699.602 161.561 700.484C161.869 699.602 162.695 699.042 163.787 699.042C165.257 699.042 166.223 699.994 166.223 701.562V706H165.285V701.758C165.285 700.596 164.641 699.91 163.605 699.91C162.471 699.91 161.799 700.764 161.799 701.814V706H160.847V701.744C160.847 700.596 160.189 699.924 159.167 699.924C158.033 699.924 157.347 700.764 157.347 701.8V706ZM171.008 706.168C169.02 706.168 167.69 704.74 167.69 702.612C167.69 700.498 169.006 699.042 170.938 699.042C172.772 699.042 174.018 700.344 174.018 702.262V702.738H168.628C168.698 704.39 169.566 705.342 171.022 705.342C172.128 705.342 172.842 704.866 173.094 703.97H174.018C173.654 705.398 172.604 706.168 171.008 706.168ZM170.938 699.868C169.664 699.868 168.824 700.708 168.656 702.038H173.052C173.052 700.736 172.212 699.868 170.938 699.868ZM178.97 702.626C178.97 700.498 180.272 699.042 182.246 699.042C183.814 699.042 184.962 699.952 185.228 701.352H184.262C184.01 700.414 183.198 699.896 182.26 699.896C180.888 699.896 179.922 700.946 179.922 702.612C179.922 704.222 180.818 705.3 182.19 705.3C183.198 705.3 184.01 704.74 184.276 703.872H185.256C184.934 705.258 183.73 706.168 182.19 706.168C180.272 706.168 178.97 704.754 178.97 702.626ZM187.685 705.986H186.719V695.794H187.685V700.4C188.119 699.588 188.945 699.042 190.079 699.042C191.857 699.042 192.655 700.148 192.655 701.856V706H191.689V702.066C191.689 700.484 190.947 699.924 189.897 699.924C188.441 699.924 187.685 701.002 187.685 702.304V705.986ZM197.422 706.168C195.434 706.168 194.104 704.74 194.104 702.612C194.104 700.498 195.42 699.042 197.352 699.042C199.186 699.042 200.432 700.344 200.432 702.262V702.738H195.042C195.112 704.39 195.98 705.342 197.436 705.342C198.542 705.342 199.256 704.866 199.508 703.97H200.432C200.068 705.398 199.018 706.168 197.422 706.168ZM197.352 699.868C196.078 699.868 195.238 700.708 195.07 702.038H199.466C199.466 700.736 198.626 699.868 197.352 699.868ZM201.403 704.096H202.327C202.327 704.88 202.915 705.37 203.867 705.37C204.917 705.37 205.533 704.922 205.533 704.194C205.533 703.634 205.253 703.312 204.455 703.116L203.293 702.822C202.117 702.528 201.543 701.912 201.543 700.988C201.543 699.798 202.537 699.042 203.993 699.042C205.421 699.042 206.345 699.826 206.387 701.086H205.449C205.421 700.302 204.875 699.84 203.965 699.84C203.013 699.84 202.481 700.246 202.481 700.974C202.481 701.492 202.845 701.856 203.587 702.038L204.749 702.332C205.925 702.626 206.457 703.172 206.457 704.152C206.457 705.37 205.421 706.168 203.881 706.168C202.355 706.168 201.403 705.356 201.403 704.096ZM209.601 706H208.649V700.036H207.291V699.224H208.649V697.082H209.601V699.224H210.959V700.036H209.601V706ZM216.1 708.954V699.224H216.94L217.038 700.596C217.514 699.546 218.466 699.042 219.6 699.042C221.56 699.042 222.736 700.54 222.736 702.584C222.736 704.628 221.602 706.168 219.6 706.168C218.452 706.168 217.542 705.678 217.066 704.698V708.954H216.1ZM217.08 702.612C217.08 704.166 217.948 705.3 219.432 705.3C220.902 705.3 221.756 704.166 221.756 702.612C221.756 701.044 220.902 699.924 219.432 699.924C217.948 699.924 217.08 701.044 217.08 702.612ZM226.222 706.168C224.78 706.168 223.926 705.356 223.926 704.166C223.926 702.92 224.878 702.136 226.46 702.01L228.7 701.828V701.604C228.7 700.274 227.902 699.854 226.908 699.854C225.732 699.854 225.032 700.386 225.032 701.296H224.15C224.15 699.924 225.27 699.042 226.936 699.042C228.504 699.042 229.652 699.826 229.652 701.618V706H228.84L228.714 704.81C228.294 705.664 227.37 706.168 226.222 706.168ZM226.446 705.384C227.874 705.384 228.7 704.39 228.7 702.92V702.556L226.698 702.71C225.424 702.822 224.906 703.382 224.906 704.138C224.906 704.964 225.522 705.384 226.446 705.384ZM232.066 697.362C231.674 697.362 231.352 697.04 231.352 696.648C231.352 696.256 231.674 695.92 232.066 695.92C232.458 695.92 232.794 696.256 232.794 696.648C232.794 697.04 232.458 697.362 232.066 697.362ZM231.59 706V699.224H232.556V706H231.59ZM235.537 706H234.571V699.224H235.41L235.551 700.4C235.999 699.532 236.895 699.042 237.875 699.042C239.737 699.042 240.507 700.148 240.507 701.856V706H239.541V702.066C239.541 700.484 238.827 699.924 237.707 699.924C236.321 699.924 235.537 700.932 235.537 702.458V706ZM248.261 706.168C246.819 706.168 245.965 705.356 245.965 704.166C245.965 702.92 246.917 702.136 248.499 702.01L250.739 701.828V701.604C250.739 700.274 249.941 699.854 248.947 699.854C247.771 699.854 247.071 700.386 247.071 701.296H246.189C246.189 699.924 247.309 699.042 248.975 699.042C250.543 699.042 251.691 699.826 251.691 701.618V706H250.879L250.753 704.81C250.333 705.664 249.409 706.168 248.261 706.168ZM248.485 705.384C249.913 705.384 250.739 704.39 250.739 702.92V702.556L248.737 702.71C247.463 702.822 246.945 703.382 246.945 704.138C246.945 704.964 247.561 705.384 248.485 705.384ZM254.595 706H253.629V699.224H254.469L254.609 700.4C255.057 699.532 255.953 699.042 256.933 699.042C258.795 699.042 259.565 700.148 259.565 701.856V706H258.599V702.066C258.599 700.484 257.885 699.924 256.765 699.924C255.379 699.924 254.595 700.932 254.595 702.458V706ZM264.15 706.168C262.176 706.168 261.014 704.656 261.014 702.626C261.014 700.582 262.176 699.042 264.192 699.042C265.312 699.042 266.208 699.532 266.684 700.512V695.794H267.65V706H266.81L266.712 704.614C266.236 705.664 265.284 706.168 264.15 706.168ZM264.318 705.286C265.802 705.286 266.67 704.166 266.67 702.598C266.67 701.044 265.802 699.91 264.318 699.91C262.848 699.91 261.994 701.044 261.994 702.598C261.994 704.166 262.848 705.286 264.318 705.286ZM59.434 728.096H60.358C60.358 728.88 60.946 729.37 61.898 729.37C62.948 729.37 63.564 728.922 63.564 728.194C63.564 727.634 63.284 727.312 62.486 727.116L61.324 726.822C60.148 726.528 59.574 725.912 59.574 724.988C59.574 723.798 60.568 723.042 62.024 723.042C63.452 723.042 64.376 723.826 64.418 725.086H63.48C63.452 724.302 62.906 723.84 61.996 723.84C61.044 723.84 60.512 724.246 60.512 724.974C60.512 725.492 60.876 725.856 61.618 726.038L62.78 726.332C63.956 726.626 64.488 727.172 64.488 728.152C64.488 729.37 63.452 730.168 61.912 730.168C60.386 730.168 59.434 729.356 59.434 728.096ZM67.0443 729.986H66.0783V719.794H67.0443V724.4C67.4783 723.588 68.3043 723.042 69.4383 723.042C71.2163 723.042 72.0143 724.148 72.0143 725.856V730H71.0483V726.066C71.0483 724.484 70.3063 723.924 69.2563 723.924C67.8003 723.924 67.0443 725.002 67.0443 726.304V729.986ZM73.4636 726.612C73.4636 724.54 74.9196 723.042 76.9076 723.042C78.8956 723.042 80.3516 724.54 80.3516 726.612C80.3516 728.67 78.8956 730.168 76.9076 730.168C74.9196 730.168 73.4636 728.67 73.4636 726.612ZM74.4436 726.598C74.4436 728.194 75.4516 729.3 76.9076 729.3C78.3496 729.3 79.3716 728.194 79.3716 726.598C79.3716 725.03 78.3496 723.91 76.9076 723.91C75.4516 723.91 74.4436 725.03 74.4436 726.598ZM85.4387 723.14V724.008H84.9067C83.6607 724.008 82.8627 724.848 82.8627 726.136V730H81.8967V723.224H82.8067L82.8767 724.274C83.1427 723.546 83.8567 723.07 84.8087 723.07C85.0187 723.07 85.2007 723.084 85.4387 723.14ZM88.5503 730H87.5983V724.036H86.2403V723.224H87.5983V721.082H88.5503V723.224H89.9083V724.036H88.5503V730ZM92.1322 730H91.1662V723.224H92.0062L92.1462 724.4C92.5942 723.532 93.4902 723.042 94.4702 723.042C96.3322 723.042 97.1022 724.148 97.1022 725.856V730H96.1362V726.066C96.1362 724.484 95.4222 723.924 94.3022 723.924C92.9162 723.924 92.1322 724.932 92.1322 726.458V730ZM101.87 730.168C99.8815 730.168 98.5515 728.74 98.5515 726.612C98.5515 724.498 99.8675 723.042 101.8 723.042C103.634 723.042 104.88 724.344 104.88 726.262V726.738H99.4895C99.5595 728.39 100.428 729.342 101.884 729.342C102.99 729.342 103.704 728.866 103.956 727.97H104.88C104.516 729.398 103.466 730.168 101.87 730.168ZM101.8 723.868C100.526 723.868 99.6855 724.708 99.5175 726.038H103.914C103.914 724.736 103.074 723.868 101.8 723.868ZM105.85 728.096H106.774C106.774 728.88 107.362 729.37 108.314 729.37C109.364 729.37 109.98 728.922 109.98 728.194C109.98 727.634 109.7 727.312 108.902 727.116L107.74 726.822C106.564 726.528 105.99 725.912 105.99 724.988C105.99 723.798 106.984 723.042 108.44 723.042C109.868 723.042 110.792 723.826 110.834 725.086H109.896C109.868 724.302 109.322 723.84 108.412 723.84C107.46 723.84 106.928 724.246 106.928 724.974C106.928 725.492 107.292 725.856 108.034 726.038L109.196 726.332C110.372 726.626 110.904 727.172 110.904 728.152C110.904 729.37 109.868 730.168 108.328 730.168C106.802 730.168 105.85 729.356 105.85 728.096ZM111.92 728.096H112.844C112.844 728.88 113.432 729.37 114.384 729.37C115.434 729.37 116.05 728.922 116.05 728.194C116.05 727.634 115.77 727.312 114.972 727.116L113.81 726.822C112.634 726.528 112.06 725.912 112.06 724.988C112.06 723.798 113.054 723.042 114.51 723.042C115.938 723.042 116.862 723.826 116.904 725.086H115.966C115.938 724.302 115.392 723.84 114.482 723.84C113.53 723.84 112.998 724.246 112.998 724.974C112.998 725.492 113.362 725.856 114.104 726.038L115.266 726.332C116.442 726.626 116.974 727.172 116.974 728.152C116.974 729.37 115.938 730.168 114.398 730.168C112.872 730.168 111.92 729.356 111.92 728.096ZM121.971 726.612C121.971 724.54 123.427 723.042 125.415 723.042C127.403 723.042 128.859 724.54 128.859 726.612C128.859 728.67 127.403 730.168 125.415 730.168C123.427 730.168 121.971 728.67 121.971 726.612ZM122.951 726.598C122.951 728.194 123.959 729.3 125.415 729.3C126.857 729.3 127.879 728.194 127.879 726.598C127.879 725.03 126.857 723.91 125.415 723.91C123.959 723.91 122.951 725.03 122.951 726.598ZM129.594 723.224H130.63V721.908C130.63 720.382 131.47 719.794 132.506 719.794C132.744 719.794 133.024 719.808 133.248 719.85V720.676H132.674C131.82 720.676 131.596 721.11 131.596 721.908V723.224H133.192V724.036H131.596V730H130.63V724.036H129.594V723.224ZM139.229 730H138.389V719.794H139.355V724.54C139.831 723.546 140.755 723.042 141.903 723.042C143.877 723.042 145.025 724.582 145.025 726.626C145.025 728.656 143.849 730.168 141.875 730.168C140.741 730.168 139.803 729.664 139.327 728.614L139.229 730ZM139.369 726.598C139.369 728.166 140.237 729.286 141.721 729.286C143.191 729.286 144.045 728.166 144.045 726.598C144.045 725.044 143.191 723.91 141.721 723.91C140.237 723.91 139.369 725.044 139.369 726.598ZM150.107 723.14V724.008H149.575C148.329 724.008 147.531 724.848 147.531 726.136V730H146.565V723.224H147.475L147.545 724.274C147.811 723.546 148.525 723.07 149.477 723.07C149.687 723.07 149.869 723.084 150.107 723.14ZM153.973 730.168C151.985 730.168 150.655 728.74 150.655 726.612C150.655 724.498 151.971 723.042 153.903 723.042C155.737 723.042 156.983 724.344 156.983 726.262V726.738H151.593C151.663 728.39 152.531 729.342 153.987 729.342C155.093 729.342 155.807 728.866 156.059 727.97H156.983C156.619 729.398 155.569 730.168 153.973 730.168ZM153.903 723.868C152.629 723.868 151.789 724.708 151.621 726.038H156.017C156.017 724.736 155.177 723.868 153.903 723.868ZM160.405 730.168C158.963 730.168 158.109 729.356 158.109 728.166C158.109 726.92 159.061 726.136 160.643 726.01L162.883 725.828V725.604C162.883 724.274 162.085 723.854 161.091 723.854C159.915 723.854 159.215 724.386 159.215 725.296H158.333C158.333 723.924 159.453 723.042 161.119 723.042C162.687 723.042 163.835 723.826 163.835 725.618V730H163.023L162.897 728.81C162.477 729.664 161.553 730.168 160.405 730.168ZM160.629 729.384C162.057 729.384 162.883 728.39 162.883 726.92V726.556L160.881 726.71C159.607 726.822 159.089 727.382 159.089 728.138C159.089 728.964 159.705 729.384 160.629 729.384ZM167.205 730H166.253V724.036H164.895V723.224H166.253V721.082H167.205V723.224H168.563V724.036H167.205V730ZM170.787 729.986H169.821V719.794H170.787V724.4C171.221 723.588 172.047 723.042 173.181 723.042C174.959 723.042 175.757 724.148 175.757 725.856V730H174.791V726.066C174.791 724.484 174.049 723.924 172.999 723.924C171.543 723.924 170.787 725.002 170.787 726.304V729.986ZM182.573 730H181.607V719.794H182.573V730ZM186.573 730.168C185.131 730.168 184.277 729.356 184.277 728.166C184.277 726.92 185.229 726.136 186.811 726.01L189.051 725.828V725.604C189.051 724.274 188.253 723.854 187.259 723.854C186.083 723.854 185.383 724.386 185.383 725.296H184.501C184.501 723.924 185.621 723.042 187.287 723.042C188.855 723.042 190.003 723.826 190.003 725.618V730H189.191L189.065 728.81C188.645 729.664 187.721 730.168 186.573 730.168ZM186.797 729.384C188.225 729.384 189.051 728.39 189.051 726.92V726.556L187.049 726.71C185.775 726.822 185.257 727.382 185.257 728.138C185.257 728.964 185.873 729.384 186.797 729.384ZM193.373 730H192.421V724.036H191.063V723.224H192.421V721.082H193.373V723.224H194.731V724.036H193.373V730ZM198.762 730.168C196.774 730.168 195.444 728.74 195.444 726.612C195.444 724.498 196.76 723.042 198.692 723.042C200.526 723.042 201.772 724.344 201.772 726.262V726.738H196.382C196.452 728.39 197.32 729.342 198.776 729.342C199.882 729.342 200.596 728.866 200.848 727.97H201.772C201.408 729.398 200.358 730.168 198.762 730.168ZM198.692 723.868C197.418 723.868 196.578 724.708 196.41 726.038H200.806C200.806 724.736 199.966 723.868 198.692 723.868ZM204.325 730H203.359V719.794H204.325V730ZM205.693 732.954V732.156H206.435C207.023 732.156 207.611 732.114 207.947 731.204L208.241 730.406L205.497 723.224H206.519L208.703 729.132L210.845 723.224H211.839L208.731 731.554C208.339 732.618 207.681 733.052 206.715 733.052C206.309 733.052 206.001 733.024 205.693 732.954ZM212.729 730.154C212.253 730.154 211.847 729.762 211.847 729.3C211.847 728.824 212.253 728.418 212.729 728.418C213.205 728.418 213.611 728.824 213.611 729.3C213.611 729.762 213.205 730.154 212.729 730.154ZM220.667 719.976V730H219.659V719.976H220.667ZM224.449 730H223.497V724.036H222.139V723.224H223.497V721.082H224.449V723.224H225.807V724.036H224.449V730ZM227.931 720.662L227.665 723.448H227.035L226.755 720.662C226.699 720.172 227.049 719.948 227.357 719.948C227.651 719.948 227.987 720.172 227.931 720.662ZM228.733 728.096H229.657C229.657 728.88 230.245 729.37 231.197 729.37C232.247 729.37 232.863 728.922 232.863 728.194C232.863 727.634 232.583 727.312 231.785 727.116L230.623 726.822C229.447 726.528 228.873 725.912 228.873 724.988C228.873 723.798 229.867 723.042 231.323 723.042C232.751 723.042 233.675 723.826 233.717 725.086H232.779C232.751 724.302 232.205 723.84 231.295 723.84C230.343 723.84 229.811 724.246 229.811 724.974C229.811 725.492 230.175 725.856 230.917 726.038L232.079 726.332C233.255 726.626 233.787 727.172 233.787 728.152C233.787 729.37 232.751 730.168 231.211 730.168C229.685 730.168 228.733 729.356 228.733 728.096ZM240.1 730H239.26V719.794H240.226V724.54C240.702 723.546 241.626 723.042 242.774 723.042C244.748 723.042 245.896 724.582 245.896 726.626C245.896 728.656 244.72 730.168 242.746 730.168C241.612 730.168 240.674 729.664 240.198 728.614L240.1 730ZM240.24 726.598C240.24 728.166 241.108 729.286 242.592 729.286C244.062 729.286 244.916 728.166 244.916 726.598C244.916 725.044 244.062 723.91 242.592 723.91C241.108 723.91 240.24 725.044 240.24 726.598ZM250.278 730.168C248.29 730.168 246.96 728.74 246.96 726.612C246.96 724.498 248.276 723.042 250.208 723.042C252.042 723.042 253.288 724.344 253.288 726.262V726.738H247.898C247.968 728.39 248.836 729.342 250.292 729.342C251.398 729.342 252.112 728.866 252.364 727.97H253.288C252.924 729.398 251.874 730.168 250.278 730.168ZM250.208 723.868C248.934 723.868 248.094 724.708 247.926 726.038H252.322C252.322 724.736 251.482 723.868 250.208 723.868ZM257.674 730.168C255.686 730.168 254.356 728.74 254.356 726.612C254.356 724.498 255.672 723.042 257.604 723.042C259.438 723.042 260.684 724.344 260.684 726.262V726.738H255.294C255.364 728.39 256.232 729.342 257.688 729.342C258.794 729.342 259.508 728.866 259.76 727.97H260.684C260.32 729.398 259.27 730.168 257.674 730.168ZM257.604 723.868C256.33 723.868 255.49 724.708 255.322 726.038H259.718C259.718 724.736 258.878 723.868 257.604 723.868ZM263.195 730H262.229V723.224H263.069L263.209 724.4C263.657 723.532 264.553 723.042 265.533 723.042C267.395 723.042 268.165 724.148 268.165 725.856V730H267.199V726.066C267.199 724.484 266.485 723.924 265.365 723.924C263.979 723.924 263.195 724.932 263.195 726.458V730ZM61.436 754L59.196 747.224H60.19L61.52 751.312C61.674 751.76 61.8 752.222 61.94 752.768C62.052 752.222 62.276 751.536 62.346 751.312L63.69 747.224H64.684L66.014 751.312C66.14 751.676 66.308 752.264 66.434 752.768C66.574 752.208 66.602 752.04 66.84 751.312L68.184 747.224H69.192L66.896 754H65.958L64.558 749.744C64.39 749.24 64.278 748.82 64.194 748.414C64.096 748.778 63.984 749.184 63.802 749.744L62.402 754H61.436ZM69.6218 750.612C69.6218 748.54 71.0778 747.042 73.0658 747.042C75.0538 747.042 76.5098 748.54 76.5098 750.612C76.5098 752.67 75.0538 754.168 73.0658 754.168C71.0778 754.168 69.6218 752.67 69.6218 750.612ZM70.6018 750.598C70.6018 752.194 71.6098 753.3 73.0658 753.3C74.5078 753.3 75.5298 752.194 75.5298 750.598C75.5298 749.03 74.5078 747.91 73.0658 747.91C71.6098 747.91 70.6018 749.03 70.6018 750.598ZM81.5969 747.14V748.008H81.0649C79.8189 748.008 79.0209 748.848 79.0209 750.136V754H78.0549V747.224H78.9649L79.0349 748.274C79.3009 747.546 80.0149 747.07 80.9669 747.07C81.1769 747.07 81.3589 747.084 81.5969 747.14ZM86.423 747.14V748.008H85.891C84.645 748.008 83.847 748.848 83.847 750.136V754H82.881V747.224H83.791L83.861 748.274C84.127 747.546 84.841 747.07 85.793 747.07C86.003 747.07 86.185 747.084 86.423 747.14ZM87.2263 756.954V756.156H87.9683C88.5563 756.156 89.1443 756.114 89.4803 755.204L89.7743 754.406L87.0303 747.224H88.0523L90.2363 753.132L92.3783 747.224H93.3723L90.2643 755.554C89.8723 756.618 89.2143 757.052 88.2483 757.052C87.8423 757.052 87.5343 757.024 87.2263 756.954ZM94.9781 745.362C94.5861 745.362 94.2641 745.04 94.2641 744.648C94.2641 744.256 94.5861 743.92 94.9781 743.92C95.3701 743.92 95.7061 744.256 95.7061 744.648C95.7061 745.04 95.3701 745.362 94.9781 745.362ZM94.5021 754V747.224H95.4681V754H94.5021ZM98.4486 754H97.4826V747.224H98.3226L98.4626 748.4C98.9106 747.532 99.8066 747.042 100.787 747.042C102.649 747.042 103.419 748.148 103.419 749.856V754H102.453V750.066C102.453 748.484 101.739 747.924 100.619 747.924C99.2326 747.924 98.4486 748.932 98.4486 750.458V754ZM104.882 750.416C104.882 748.568 106.072 747.042 108.06 747.042C109.236 747.042 110.132 747.588 110.566 748.582L110.664 747.224H111.504V753.79C111.504 755.806 110.216 757.122 108.228 757.122C106.492 757.122 105.274 756.142 105.008 754.504H105.974C106.184 755.596 107.024 756.24 108.242 756.24C109.628 756.24 110.552 755.302 110.552 753.888V752.278C110.09 753.23 109.152 753.79 107.99 753.79C106.058 753.79 104.882 752.264 104.882 750.416ZM105.848 750.402C105.848 751.788 106.702 752.922 108.13 752.922C109.6 752.922 110.468 751.858 110.468 750.402C110.468 748.96 109.628 747.896 108.144 747.896C106.688 747.896 105.848 749.03 105.848 750.402ZM118.369 754H117.403V747.224H118.243L118.355 748.19C118.691 747.476 119.447 747.042 120.399 747.042C121.463 747.042 122.261 747.602 122.583 748.484C122.891 747.602 123.717 747.042 124.809 747.042C126.279 747.042 127.245 747.994 127.245 749.562V754H126.307V749.758C126.307 748.596 125.663 747.91 124.627 747.91C123.493 747.91 122.821 748.764 122.821 749.814V754H121.869V749.744C121.869 748.596 121.211 747.924 120.189 747.924C119.055 747.924 118.369 748.764 118.369 749.8V754ZM132.03 754.168C130.042 754.168 128.712 752.74 128.712 750.612C128.712 748.498 130.028 747.042 131.96 747.042C133.794 747.042 135.04 748.344 135.04 750.262V750.738H129.65C129.72 752.39 130.588 753.342 132.044 753.342C133.15 753.342 133.864 752.866 134.116 751.97H135.04C134.676 753.398 133.626 754.168 132.03 754.168ZM131.96 747.868C130.686 747.868 129.846 748.708 129.678 750.038H134.074C134.074 748.736 133.234 747.868 131.96 747.868ZM136.986 754.154C136.51 754.154 136.104 753.762 136.104 753.3C136.104 752.824 136.51 752.418 136.986 752.418C137.462 752.418 137.868 752.824 137.868 753.3C137.868 753.762 137.462 754.154 136.986 754.154Z" fill="#0F1828"/>
<g clip-path="url(#clip2_62_121)">
<path d="M344.01 727.5L365 718.5L344.01 709.5L344 716.5L359 718.5L344 720.5L344.01 727.5Z" fill="#002DE3"/>
</g>
<rect opacity="0.9" x="125" y="802" width="131" height="5" rx="2.5" fill="#0F1828"/>
</g>
<path d="M3 648.5H2.5V649V815.464V815.964H3H378H378.5V815.464V649V648.5H378H3Z" stroke="#EDEDED"/>
<path d="M183.265 353.472H189V366.528H183.265V353.472ZM171.965 370.35H177.699V349.65H171.965V370.35ZM160.854 381.058H166.588V338.942H160.854V381.058ZM150.291 389.32H156.026V331.065H150.291V389.306V389.32ZM138.983 375.094H144.718V344.906H138.983V375.094ZM127.496 397.936H133.231V320.772H127.478V397.936H127.496ZM116.192 409H121.926V311H116.192V409ZM105.081 393.87H110.815V326.129H105.081V393.87ZM93.5864 374.633H99.3211V346.08H93.5864V374.633ZM82.4757 367.827H88.2105V352.148H82.4757V367.852V367.827ZM71.3648 376.214H77.0995V343.774H71.3648V376.225V376.214ZM60.433 391.918H66.1677V326.226H60.4333V391.929L60.433 391.918ZM49.3224 381.882H55.0571V337.554H49.3224V381.893V381.882ZM38 370.35H43.7347V349.65H38V370.35Z" fill="#848199"/>
<path d="M338.265 353.472H344V366.528H338.265V353.472ZM326.965 370.35H332.699V349.65H326.965V370.35ZM315.854 381.058H321.588V338.942H315.854V381.058ZM305.291 389.32H311.026V331.065H305.291V389.306V389.32ZM293.983 375.094H299.718V344.906H293.983V375.094ZM282.496 397.936H288.231V320.772H282.478V397.936H282.496ZM271.192 409H276.926V311H271.192V409ZM260.081 393.87H265.815V326.129H260.081V393.87ZM248.586 374.633H254.321V346.08H248.586V374.633ZM237.476 367.827H243.21V352.148H237.476V367.852V367.827ZM226.365 376.214H232.099V343.774H226.365V376.225V376.214ZM215.433 391.918H221.168V326.226H215.433V391.929L215.433 391.918ZM204.322 381.882H210.057V337.554H204.322V381.893V381.882ZM193 370.35H198.735V349.65H193V370.35Z" fill="#848199"/>
<path d="M152.744 215.384C150.888 215.384 149.245 214.872 147.816 213.848C146.387 212.824 145.277 211.384 144.488 209.528C143.699 207.651 143.304 205.496 143.304 203.064C143.304 200.632 143.699 198.488 144.488 196.632C145.277 194.776 146.376 193.336 147.784 192.312C149.213 191.288 150.856 190.776 152.712 190.776C154.568 190.776 156.2 191.288 157.608 192.312C159.037 193.336 160.147 194.776 160.936 196.632C161.725 198.488 162.12 200.632 162.12 203.064C162.12 205.496 161.725 207.651 160.936 209.528C160.168 211.384 159.069 212.824 157.64 213.848C156.232 214.872 154.6 215.384 152.744 215.384ZM145.864 203.064C145.864 205.027 146.152 206.755 146.728 208.248C147.304 209.741 148.104 210.904 149.128 211.736C150.173 212.568 151.379 212.984 152.744 212.984C154.088 212.984 155.272 212.579 156.296 211.768C157.341 210.936 158.152 209.773 158.728 208.28C159.304 206.765 159.592 205.027 159.592 203.064C159.592 201.101 159.304 199.373 158.728 197.88C158.152 196.387 157.341 195.235 156.296 194.424C155.272 193.592 154.077 193.176 152.712 193.176C151.368 193.176 150.173 193.592 149.128 194.424C148.104 195.235 147.304 196.387 146.728 197.88C146.152 199.373 145.864 201.101 145.864 203.064ZM176.182 215.384C174.326 215.384 172.683 214.872 171.254 213.848C169.824 212.824 168.715 211.384 167.926 209.528C167.136 207.651 166.742 205.496 166.742 203.064C166.742 200.632 167.136 198.488 167.926 196.632C168.715 194.776 169.814 193.336 171.222 192.312C172.651 191.288 174.294 190.776 176.15 190.776C178.006 190.776 179.638 191.288 181.046 192.312C182.475 193.336 183.584 194.776 184.374 196.632C185.163 198.488 185.558 200.632 185.558 203.064C185.558 205.496 185.163 207.651 184.374 209.528C183.606 211.384 182.507 212.824 181.078 213.848C179.67 214.872 178.038 215.384 176.182 215.384ZM169.302 203.064C169.302 205.027 169.59 206.755 170.166 208.248C170.742 209.741 171.542 210.904 172.566 211.736C173.611 212.568 174.816 212.984 176.182 212.984C177.526 212.984 178.71 212.579 179.734 211.768C180.779 210.936 181.59 209.773 182.166 208.28C182.742 206.765 183.03 205.027 183.03 203.064C183.03 201.101 182.742 199.373 182.166 197.88C181.59 196.387 180.779 195.235 179.734 194.424C178.71 193.592 177.515 193.176 176.15 193.176C174.806 193.176 173.611 193.592 172.566 194.424C171.542 195.235 170.742 196.387 170.166 197.88C169.59 199.373 169.302 201.101 169.302 203.064ZM192.451 215C191.982 215 191.576 214.84 191.235 214.52C190.915 214.179 190.755 213.773 190.755 213.304C190.755 212.813 190.915 212.408 191.235 212.088C191.576 211.768 191.982 211.608 192.451 211.608C192.942 211.608 193.347 211.768 193.667 212.088C193.987 212.408 194.147 212.813 194.147 213.304C194.147 213.795 193.987 214.2 193.667 214.52C193.347 214.84 192.942 215 192.451 215ZM190.755 199.544C190.755 199.053 190.915 198.648 191.235 198.328C191.576 198.008 191.982 197.848 192.451 197.848C192.942 197.848 193.347 198.008 193.667 198.328C193.987 198.648 194.147 199.053 194.147 199.544C194.147 200.035 193.987 200.44 193.667 200.76C193.347 201.08 192.942 201.24 192.451 201.24C191.982 201.24 191.576 201.08 191.235 200.76C190.915 200.419 190.755 200.013 190.755 199.544ZM206.695 215.384C204.839 215.384 203.186 214.915 201.735 213.976C200.306 213.016 199.293 211.725 198.695 210.104L200.647 209.144C201.138 210.36 201.938 211.331 203.047 212.056C204.157 212.781 205.373 213.144 206.695 213.144C207.719 213.144 208.647 212.899 209.479 212.408C210.311 211.917 210.962 211.256 211.431 210.424C211.901 209.571 212.135 208.621 212.135 207.576C212.135 206.509 211.89 205.56 211.399 204.728C210.93 203.875 210.279 203.213 209.447 202.744C208.637 202.253 207.73 202.008 206.727 202.008C205.703 202.008 204.743 202.243 203.847 202.712C202.951 203.181 202.301 203.768 201.895 204.472L199.879 204.088L201.671 191.128H213.735V193.368H203.463L202.375 201.08C203.634 200.163 205.127 199.704 206.855 199.704C208.349 199.704 209.693 200.056 210.887 200.76C212.082 201.464 213.01 202.424 213.671 203.64C214.354 204.835 214.695 206.147 214.695 207.576C214.695 209.048 214.343 210.381 213.639 211.576C212.957 212.749 212.007 213.677 210.791 214.36C209.575 215.043 208.21 215.384 206.695 215.384ZM228.494 215.384C226.638 215.384 224.995 214.872 223.566 213.848C222.137 212.824 221.027 211.384 220.238 209.528C219.449 207.651 219.054 205.496 219.054 203.064C219.054 200.632 219.449 198.488 220.238 196.632C221.027 194.776 222.126 193.336 223.534 192.312C224.963 191.288 226.606 190.776 228.462 190.776C230.318 190.776 231.95 191.288 233.358 192.312C234.787 193.336 235.897 194.776 236.686 196.632C237.475 198.488 237.87 200.632 237.87 203.064C237.87 205.496 237.475 207.651 236.686 209.528C235.918 211.384 234.819 212.824 233.39 213.848C231.982 214.872 230.35 215.384 228.494 215.384ZM221.614 203.064C221.614 205.027 221.902 206.755 222.478 208.248C223.054 209.741 223.854 210.904 224.878 211.736C225.923 212.568 227.129 212.984 228.494 212.984C229.838 212.984 231.022 212.579 232.046 211.768C233.091 210.936 233.902 209.773 234.478 208.28C235.054 206.765 235.342 205.027 235.342 203.064C235.342 201.101 235.054 199.373 234.478 197.88C233.902 196.387 233.091 195.235 232.046 194.424C231.022 193.592 229.827 193.176 228.462 193.176C227.118 193.176 225.923 193.592 224.878 194.424C223.854 195.235 223.054 196.387 222.478 197.88C221.902 199.373 221.614 201.101 221.614 203.064Z" fill="black"/>
<path d="M191 470C172.3 470 157 485.3 157 504C157 522.7 172.3 538 191 538C209.7 538 225 522.7 225 504C225 485.3 209.7 470 191 470ZM191 518.571C182.986 518.571 176.429 512.014 176.429 504C176.429 495.986 182.986 489.429 191 489.429C199.014 489.429 205.571 495.986 205.571 504C205.571 512.014 199.014 518.571 191 518.571Z" fill="#FF4550"/>
<rect x="3.5" y="3.5" width="374" height="89" fill="white"/>
<rect x="3.5" y="3.5" width="374" height="89" stroke="#EDEDED"/>
<g clip-path="url(#clip3_62_121)">
<path d="M28.435 29.79C28.585 30.58 29.045 30.975 29.815 30.975C30.345 30.975 30.72 30.74 30.94 30.27C31.16 29.8 31.27 29.035 31.27 27.975C31.05 28.285 30.75 28.525 30.37 28.695C29.99 28.865 29.565 28.95 29.095 28.95C28.455 28.95 27.885 28.82 27.385 28.56C26.885 28.29 26.49 27.895 26.2 27.375C25.92 26.845 25.78 26.205 25.78 25.455C25.78 24.715 25.93 24.07 26.23 23.52C26.54 22.97 26.975 22.545 27.535 22.245C28.105 21.945 28.775 21.795 29.545 21.795C31.025 21.795 32.06 22.255 32.65 23.175C33.24 24.095 33.535 25.45 33.535 27.24C33.535 28.54 33.415 29.615 33.175 30.465C32.945 31.305 32.55 31.945 31.99 32.385C31.44 32.825 30.685 33.045 29.725 33.045C28.965 33.045 28.315 32.895 27.775 32.595C27.245 32.295 26.835 31.9 26.545 31.41C26.265 30.92 26.105 30.38 26.065 29.79H28.435ZM29.68 26.925C30.1 26.925 30.435 26.8 30.685 26.55C30.935 26.29 31.06 25.94 31.06 25.5C31.06 25.02 30.93 24.65 30.67 24.39C30.41 24.13 30.06 24 29.62 24C29.18 24 28.83 24.135 28.57 24.405C28.32 24.665 28.195 25.025 28.195 25.485C28.195 25.915 28.32 26.265 28.57 26.535C28.83 26.795 29.2 26.925 29.68 26.925ZM36.3585 33.12C35.9085 33.12 35.5385 32.99 35.2485 32.73C34.9685 32.46 34.8285 32.13 34.8285 31.74C34.8285 31.34 34.9685 31.005 35.2485 30.735C35.5385 30.465 35.9085 30.33 36.3585 30.33C36.7985 30.33 37.1585 30.465 37.4385 30.735C37.7285 31.005 37.8735 31.34 37.8735 31.74C37.8735 32.13 37.7285 32.46 37.4385 32.73C37.1585 32.99 36.7985 33.12 36.3585 33.12ZM36.3585 27.015C35.9085 27.015 35.5385 26.885 35.2485 26.625C34.9685 26.355 34.8285 26.025 34.8285 25.635C34.8285 25.235 34.9685 24.9 35.2485 24.63C35.5385 24.36 35.9085 24.225 36.3585 24.225C36.7985 24.225 37.1585 24.36 37.4385 24.63C37.7285 24.9 37.8735 25.235 37.8735 25.635C37.8735 26.025 37.7285 26.355 37.4385 26.625C37.1585 26.885 36.7985 27.015 36.3585 27.015ZM39.2262 31.05V28.98L43.9662 22.2H46.8312V28.83H48.0612V31.05H46.8312V33H44.2662V31.05H39.2262ZM44.4462 25.02L41.9262 28.83H44.4462V25.02ZM49.0476 24.435V22.05H53.2026V33H50.5326V24.435H49.0476Z" fill="#0F1828"/>
</g>
<g clip-path="url(#clip4_62_121)">
<path d="M341.089 31.75C340.35 31.8244 339.604 31.695 338.933 31.376C338.481 31.1379 338.112 30.7688 337.874 30.317C337.555 29.6461 337.425 28.9004 337.5 28.161V23.839C337.425 23.0997 337.555 22.354 337.874 21.683C338.112 21.2313 338.481 20.8622 338.933 20.624C339.604 20.3047 340.35 20.1753 341.089 20.25H355.91C356.65 20.1752 357.396 20.3045 358.067 20.624C358.518 20.8621 358.887 21.2309 359.125 21.682C359.444 22.3535 359.574 23.0993 359.5 23.839V28.161C359.574 28.9004 359.445 29.6458 359.126 30.317C358.888 30.7682 358.519 31.137 358.068 31.375C357.397 31.694 356.651 31.8234 355.911 31.749L341.089 31.75ZM339.4 21.506C339.123 21.6511 338.896 21.8776 338.751 22.155C338.522 22.685 338.436 23.2654 338.5 23.839V28.161C338.437 28.7367 338.525 29.319 338.756 29.85C338.901 30.1276 339.127 30.3539 339.405 30.498C339.935 30.7294 340.516 30.818 341.09 30.755H355.91C356.485 30.8181 357.066 30.7295 357.596 30.498C357.873 30.3525 358.098 30.1266 358.244 29.85C358.475 29.319 358.563 28.7367 358.5 28.161V23.839C358.563 23.2634 358.475 22.6811 358.244 22.15C358.098 21.8732 357.873 21.647 357.596 21.501C357.065 21.2723 356.484 21.1857 355.91 21.25H341.089C340.513 21.1867 339.931 21.2749 339.4 21.506ZM360.5 23.94C360.5 23.94 362 24.703 362 25.94C362 27.177 360.5 27.94 360.5 27.94V23.94Z" fill="black" fill-opacity="0.36"/>
<path d="M355.9 22.167H341.1C340.216 22.167 339.5 22.8833 339.5 23.767V28.234C339.5 29.1176 340.216 29.834 341.1 29.834H355.9C356.784 29.834 357.5 29.1176 357.5 28.234V23.767C357.5 22.8833 356.784 22.167 355.9 22.167Z" fill="#0F1828"/>
<path d="M310.3 31.3901C309.982 31.3901 309.677 31.2636 309.451 31.0386C309.226 30.8135 309.1 30.5083 309.1 30.1901V21.8901C309.1 21.5718 309.226 21.2666 309.451 21.0415C309.677 20.8165 309.982 20.6901 310.3 20.6901H310.9C311.218 20.6901 311.523 20.8165 311.749 21.0415C311.974 21.2666 312.1 21.5718 312.1 21.8901V30.1901C312.1 30.5083 311.974 30.8135 311.749 31.0386C311.523 31.2636 311.218 31.3901 310.9 31.3901H310.3ZM305.6 31.3901C305.282 31.3901 304.977 31.2636 304.751 31.0386C304.526 30.8135 304.4 30.5083 304.4 30.1901V24.2901C304.4 23.9718 304.526 23.6666 304.751 23.4415C304.977 23.2165 305.282 23.0901 305.6 23.0901H306.2C306.518 23.0901 306.823 23.2165 307.049 23.4415C307.274 23.6666 307.4 23.9718 307.4 24.2901V30.1901C307.4 30.5083 307.274 30.8135 307.049 31.0386C306.823 31.2636 306.518 31.3901 306.2 31.3901H305.6ZM301 31.3901C300.682 31.3901 300.377 31.2636 300.151 31.0386C299.926 30.8135 299.8 30.5083 299.8 30.1901V26.5901C299.8 26.2718 299.926 25.9666 300.151 25.7415C300.377 25.5165 300.682 25.3901 301 25.3901H301.6C301.918 25.3901 302.223 25.5165 302.449 25.7415C302.674 25.9666 302.8 26.2718 302.8 26.5901V30.1901C302.8 30.5083 302.674 30.8135 302.449 31.0386C302.223 31.2636 301.918 31.3901 301.6 31.3901H301ZM296.2 31.3901C295.882 31.3901 295.577 31.2636 295.351 31.0386C295.126 30.8135 295 30.5083 295 30.1901V28.5901C295 28.2718 295.126 27.9666 295.351 27.7415C295.577 27.5165 295.882 27.3901 296.2 27.3901H296.8C297.118 27.3901 297.423 27.5165 297.649 27.7415C297.874 27.9666 298 28.2718 298 28.5901V30.1901C298 30.5083 297.874 30.8135 297.649 31.0386C297.423 31.2636 297.118 31.3901 296.8 31.3901H296.2Z" fill="#0F1828"/>
<path d="M324.8 31.5471C324.758 31.5469 324.717 31.5385 324.679 31.5224C324.641 31.5062 324.606 31.4827 324.577 31.4531L322.562 29.4221C322.531 29.3918 322.507 29.3555 322.491 29.3155C322.475 29.2755 322.467 29.2326 322.468 29.1894C322.469 29.1463 322.478 29.1038 322.496 29.0645C322.514 29.0252 322.54 28.99 322.572 28.9611C323.195 28.4342 323.985 28.1451 324.801 28.1451C325.616 28.1451 326.406 28.4342 327.029 28.9611C327.06 28.9902 327.086 29.0255 327.103 29.0647C327.12 29.1039 327.129 29.1463 327.129 29.1891C327.13 29.2323 327.122 29.2753 327.105 29.3154C327.089 29.3554 327.065 29.3917 327.034 29.4221L325.024 31.4541C324.995 31.4836 324.96 31.5071 324.921 31.523C324.883 31.539 324.842 31.5472 324.8 31.5471ZM328.337 27.9801C328.257 27.9806 328.18 27.9497 328.122 27.8941C327.212 27.0699 326.029 26.6134 324.802 26.6134C323.574 26.6134 322.391 27.0699 321.481 27.8941C321.422 27.9507 321.344 27.982 321.262 27.9813C321.181 27.9805 321.103 27.9478 321.045 27.8901L319.88 26.7121C319.849 26.6819 319.825 26.6458 319.808 26.6061C319.792 26.5663 319.783 26.5237 319.783 26.4806C319.783 26.4375 319.792 26.3949 319.808 26.3551C319.825 26.3154 319.849 26.2793 319.88 26.2491C321.216 25.0067 322.973 24.316 324.797 24.316C326.621 24.316 328.378 25.0067 329.714 26.2491C329.745 26.2793 329.769 26.3154 329.786 26.3551C329.802 26.3949 329.811 26.4375 329.811 26.4806C329.811 26.5237 329.802 26.5663 329.786 26.6061C329.769 26.6458 329.745 26.6819 329.714 26.7121L328.559 27.8901C328.53 27.9192 328.495 27.9422 328.457 27.9578C328.419 27.9734 328.378 27.9813 328.337 27.9811V27.9801ZM331.02 25.2731C330.939 25.2733 330.861 25.2417 330.803 25.1851C329.183 23.6459 327.034 22.7876 324.8 22.7876C322.566 22.7876 320.417 23.6459 318.797 25.1851C318.739 25.2418 318.66 25.2734 318.579 25.2731C318.538 25.2733 318.497 25.2652 318.46 25.2494C318.422 25.2336 318.388 25.2104 318.359 25.1811L317.194 24.0051C317.164 23.9749 317.14 23.9391 317.123 23.8996C317.107 23.8601 317.099 23.8178 317.099 23.7751C317.099 23.7324 317.107 23.6901 317.123 23.6506C317.14 23.6111 317.164 23.5753 317.194 23.5451C319.24 21.5848 321.964 20.4904 324.797 20.4904C327.63 20.4904 330.354 21.5848 332.4 23.5451C332.43 23.5752 332.454 23.611 332.471 23.6505C332.487 23.69 332.496 23.7323 332.496 23.7751C332.496 23.8179 332.487 23.8602 332.471 23.8997C332.454 23.9391 332.43 23.975 332.4 24.0051L331.24 25.1811C331.211 25.2104 331.177 25.2336 331.139 25.2494C331.102 25.2652 331.061 25.2733 331.02 25.2731Z" fill="#0F1828"/>
</g>
<path d="M27.288 65L33.298 71.01L34.712 69.596L30.112 64.996L34.712 60.396L33.298 58.99L27.288 65Z" fill="#0F1828"/>
<path d="M52.512 72V59.31H54.15L59.046 70.344H58.506L63.402 59.31H65.022V72H63.33V61.848H63.924L59.352 72H58.182L53.61 61.848H54.222V72H52.512ZM67.8886 75.888V65.106C67.8886 64.758 67.8706 64.404 67.8346 64.044C67.8106 63.672 67.7806 63.3 67.7446 62.928H69.5086L69.6886 64.98H69.4906C69.6826 64.296 70.0666 63.756 70.6426 63.36C71.2306 62.964 71.9266 62.766 72.7306 62.766C73.5346 62.766 74.2366 62.958 74.8366 63.342C75.4366 63.714 75.8986 64.248 76.2226 64.944C76.5586 65.64 76.7266 66.48 76.7266 67.464C76.7266 68.436 76.5586 69.276 76.2226 69.984C75.8986 70.692 75.4366 71.232 74.8366 71.604C74.2366 71.976 73.5346 72.162 72.7306 72.162C71.9386 72.162 71.2486 71.97 70.6606 71.586C70.0846 71.19 69.7006 70.656 69.5086 69.984H69.7066V75.888H67.8886ZM72.2806 70.74C73.0726 70.74 73.7026 70.464 74.1706 69.912C74.6506 69.36 74.8906 68.544 74.8906 67.464C74.8906 66.384 74.6506 65.574 74.1706 65.034C73.7026 64.482 73.0726 64.206 72.2806 64.206C71.4886 64.206 70.8526 64.482 70.3726 65.034C69.9046 65.574 69.6706 66.384 69.6706 67.464C69.6706 68.544 69.9046 69.36 70.3726 69.912C70.8526 70.464 71.4886 70.74 72.2806 70.74ZM78.8574 72V62.928H80.6754V72H78.8574ZM78.7134 61.038V59.148H80.8194V61.038H78.7134ZM83.3398 72V58.752H85.1578V72H83.3398ZM91.7102 72.162C90.8102 72.162 90.0302 71.976 89.3702 71.604C88.7102 71.22 88.2002 70.68 87.8402 69.984C87.4802 69.276 87.3002 68.436 87.3002 67.464C87.3002 66.492 87.4802 65.658 87.8402 64.962C88.2002 64.254 88.7102 63.714 89.3702 63.342C90.0302 62.958 90.8102 62.766 91.7102 62.766C92.6102 62.766 93.3902 62.958 94.0502 63.342C94.7222 63.714 95.2382 64.254 95.5982 64.962C95.9702 65.658 96.1562 66.492 96.1562 67.464C96.1562 68.436 95.9702 69.276 95.5982 69.984C95.2382 70.68 94.7222 71.22 94.0502 71.604C93.3902 71.976 92.6102 72.162 91.7102 72.162ZM91.7102 70.74C92.5022 70.74 93.1322 70.464 93.6002 69.912C94.0682 69.36 94.3022 68.544 94.3022 67.464C94.3022 66.384 94.0682 65.574 93.6002 65.034C93.1322 64.482 92.5022 64.206 91.7102 64.206C90.9302 64.206 90.3062 64.482 89.8382 65.034C89.3702 65.574 89.1362 66.384 89.1362 67.464C89.1362 68.544 89.3642 69.36 89.8202 69.912C90.2882 70.464 90.9182 70.74 91.7102 70.74Z" fill="#0F1828"/>
<path d="M324.677 72.607L318.962 66.891C316.42 68.6985 312.916 68.2564 310.903 65.8739C308.889 63.4915 309.037 59.9636 311.243 57.758C313.448 55.5515 316.977 55.403 319.359 57.4164C321.742 59.4299 322.185 62.9335 320.377 65.476L326.092 71.192L324.678 72.606L324.677 72.607ZM315.485 58C313.589 57.9996 311.953 59.3307 311.567 61.1875C311.182 63.0442 312.154 64.9163 313.894 65.6703C315.634 66.4242 317.664 65.8528 318.755 64.3021C319.847 62.7513 319.699 60.6473 318.402 59.264L319.007 59.864L318.325 59.184L318.313 59.172C317.565 58.4192 316.546 57.9971 315.485 58Z" fill="#0F1828"/>
<g clip-path="url(#clip5_62_121)">
<path d="M350 61C351.1 61 352 60.1 352 59C352 57.9 351.1 57 350 57C348.9 57 348 57.9 348 59C348 60.1 348.9 61 350 61ZM350 63C348.9 63 348 63.9 348 65C348 66.1 348.9 67 350 67C351.1 67 352 66.1 352 65C352 63.9 351.1 63 350 63ZM350 69C348.9 69 348 69.9 348 71C348 72.1 348.9 73 350 73C351.1 73 352 72.1 352 71C352 69.9 351.1 69 350 69Z" fill="black"/>
</g>
</g>
<rect x="1.5" y="1.5" width="378" height="815" rx="25.5" stroke="black" stroke-opacity="0.7" stroke-width="3"/>
<defs>
<clipPath id="clip0_62_121">
<rect x="3" y="3" width="375" height="812" rx="24" fill="white"/>
</clipPath>
<clipPath id="clip1_62_121">
<path d="M3 649H378V815.464H3V649Z" fill="white"/>
</clipPath>
<clipPath id="clip2_62_121">
<rect width="24" height="24" fill="white" transform="translate(342 706.5)"/>
</clipPath>
<clipPath id="clip3_62_121">
<rect width="54" height="20" fill="white" transform="translate(19 16)"/>
</clipPath>
<clipPath id="clip4_62_121">
<rect width="67" height="11.5" fill="white" transform="translate(295 20.25)"/>
</clipPath>
<clipPath id="clip5_62_121">
<rect width="24" height="24" fill="white" transform="translate(338 53)"/>
</clipPath>
</defs>
</svg>
