<svg width="23" height="19" viewBox="0 0 23 19" fill="none" xmlns="http://www.w3.org/2000/svg">
<path d="M13.2001 9.54999C13.1567 9.51482 13.1324 9.46705 13.1324 9.41724C13.1324 9.36743 13.1567 9.31967 13.2001 9.28449L21.7506 2.33799C22.2913 1.8981 22.2906 1.18539 21.7492 0.746118C21.2078 0.306845 20.3306 0.307348 19.79 0.747243L11.2405 7.69074C11.1972 7.72601 11.1384 7.74583 11.0771 7.74583C11.0158 7.74583 10.957 7.72601 10.9137 7.69074L2.36415 0.747243C1.8235 0.307762 0.94674 0.307595 0.405841 0.746868C-0.135058 1.18614 -0.135265 1.89851 0.40538 2.33799L8.95399 9.28449C8.9974 9.31967 9.02179 9.36743 9.02179 9.41724C9.02179 9.46705 8.9974 9.51482 8.95399 9.54999L0.40538 16.4972C0.0556441 16.7815 -0.0808553 17.1958 0.0472996 17.5841C0.175455 17.9723 0.548794 18.2755 1.02668 18.3794C1.50457 18.4834 2.01441 18.3723 2.36415 18.088L10.9137 11.1407C10.957 11.1055 11.0158 11.0857 11.0771 11.0857C11.1384 11.0857 11.1972 11.1055 11.2405 11.1407L19.79 18.088C20.3306 18.5275 21.2074 18.5276 21.7483 18.0884C22.2892 17.6491 22.2894 16.9367 21.7488 16.4972L13.2001 9.54999Z" fill="#F74D4D"/>
</svg>
